<svg width="100" height="68" viewBox="0 0 100 56" fill="none" xmlns="http://www.w3.org/2000/svg">
<path d="M4.11555 19.12C3.32888 19.12 2.58888 18.9467 1.89555 18.6C1.21555 18.2533 0.668882 17.76 0.255548 17.12L1.11555 16.12C1.50222 16.68 1.94888 17.1067 2.45555 17.4C2.96222 17.6933 3.52222 17.84 4.13555 17.84C5.86888 17.84 6.73555 16.8133 6.73555 14.76V6.28H1.61555V5H8.19555V14.7C8.19555 16.18 7.84888 17.2867 7.15555 18.02C6.47555 18.7533 5.46222 19.12 4.11555 19.12ZM18.3551 19.12C17.3017 19.12 16.3217 18.9467 15.4151 18.6C14.5217 18.24 13.7417 17.74 13.0751 17.1C12.4217 16.4467 11.9084 15.6933 11.5351 14.84C11.1751 13.9733 10.9951 13.0267 10.9951 12C10.9951 10.9733 11.1751 10.0333 11.5351 9.18C11.9084 8.31333 12.4217 7.56 13.0751 6.92C13.7417 6.26667 14.5217 5.76667 15.4151 5.42C16.3084 5.06 17.2884 4.88 18.3551 4.88C19.4084 4.88 20.3817 5.06 21.2751 5.42C22.1684 5.76667 22.9417 6.26 23.5951 6.9C24.2617 7.54 24.7751 8.29333 25.1351 9.16C25.5084 10.0267 25.6951 10.9733 25.6951 12C25.6951 13.0267 25.5084 13.9733 25.1351 14.84C24.7751 15.7067 24.2617 16.46 23.5951 17.1C22.9417 17.74 22.1684 18.24 21.2751 18.6C20.3817 18.9467 19.4084 19.12 18.3551 19.12ZM18.3551 17.8C19.1951 17.8 19.9684 17.66 20.6751 17.38C21.3951 17.0867 22.0151 16.68 22.5351 16.16C23.0684 15.6267 23.4817 15.0133 23.7751 14.32C24.0684 13.6133 24.2151 12.84 24.2151 12C24.2151 11.16 24.0684 10.3933 23.7751 9.7C23.4817 8.99333 23.0684 8.38 22.5351 7.86C22.0151 7.32667 21.3951 6.92 20.6751 6.64C19.9684 6.34667 19.1951 6.2 18.3551 6.2C17.5151 6.2 16.7351 6.34667 16.0151 6.64C15.2951 6.92 14.6684 7.32667 14.1351 7.86C13.6151 8.38 13.2017 8.99333 12.8951 9.7C12.6017 10.3933 12.4551 11.16 12.4551 12C12.4551 12.8267 12.6017 13.5933 12.8951 14.3C13.2017 15.0067 13.6151 15.6267 14.1351 16.16C14.6684 16.68 15.2951 17.0867 16.0151 17.38C16.7351 17.66 17.5151 17.8 18.3551 17.8ZM27.4724 19V5H32.1924V19H27.4724ZM34.0646 19V5H37.9446L45.0646 13.52H43.2646V5H47.8646V19H43.9846L36.8646 10.48H38.6646V19H34.0646ZM54.1388 19L48.2188 5H53.2988L58.1188 16.82H55.0988L60.0588 5H64.6988L58.7788 19H54.1388ZM64.7685 19V5H69.4885V19H64.7685ZM74.4007 19V8.66H70.3007V5H83.2207V8.66H79.1207V19H74.4007ZM91.1913 19.32C90.058 19.32 89.0047 19.14 88.0313 18.78C87.0713 18.42 86.238 17.9133 85.5313 17.26C84.8247 16.5933 84.2713 15.8133 83.8713 14.92C83.4847 14.0267 83.2913 13.0533 83.2913 12C83.2913 10.9333 83.4847 9.96 83.8713 9.08C84.2713 8.18667 84.8247 7.41333 85.5313 6.76C86.238 6.09333 87.0713 5.58 88.0313 5.22C89.0047 4.86 90.058 4.68 91.1913 4.68C92.338 4.68 93.3913 4.86 94.3513 5.22C95.3113 5.58 96.1447 6.09333 96.8513 6.76C97.558 7.41333 98.1047 8.18667 98.4913 9.08C98.8913 9.96 99.0913 10.9333 99.0913 12C99.0913 13.0533 98.8913 14.0267 98.4913 14.92C98.1047 15.8133 97.558 16.5933 96.8513 17.26C96.1447 17.9133 95.3113 18.42 94.3513 18.78C93.3913 19.14 92.338 19.32 91.1913 19.32ZM91.1913 15.5C91.6313 15.5 92.038 15.42 92.4113 15.26C92.798 15.1 93.1313 14.8733 93.4113 14.58C93.7047 14.2733 93.9313 13.9067 94.0913 13.48C94.2513 13.04 94.3313 12.5467 94.3313 12C94.3313 11.4533 94.2513 10.9667 94.0913 10.54C93.9313 10.1 93.7047 9.73333 93.4113 9.44C93.1313 9.13333 92.798 8.9 92.4113 8.74C92.038 8.58 91.6313 8.5 91.1913 8.5C90.7513 8.5 90.338 8.58 89.9513 8.74C89.578 8.9 89.2447 9.13333 88.9513 9.44C88.6713 9.73333 88.4513 10.1 88.2913 10.54C88.1313 10.9667 88.0513 11.4533 88.0513 12C88.0513 12.5467 88.1313 13.04 88.2913 13.48C88.4513 13.9067 88.6713 14.2733 88.9513 14.58C89.2447 14.8733 89.578 15.1 89.9513 15.26C90.338 15.42 90.7513 15.5 91.1913 15.5Z" fill="#07203C"/>
<path d="M0 55.9755V50.551H1.18637H2.37274L2.88549 50.3551L3.39825 50.1592V49.7602V49.3612L3.83442 48.9528L4.27058 48.5444L4.38701 47.6894L4.50344 46.8343L5.35077 46.8516C5.8168 46.8612 6.24458 46.9158 6.3014 46.9729C6.35821 47.03 6.45362 47.8358 6.51341 48.7636C6.57321 49.6915 6.66308 50.654 6.71312 50.9026L6.80412 51.3547L7.44997 51.3539L8.09583 51.3532L8.73274 50.9628C9.49386 50.4964 9.4204 49.9154 9.5919 48.7423L9.70253 46.4769L10.1931 45.568L10.6586 50.1037L10.7476 50.7294L11.1374 51.2542H11.8155H12.4936L12.6159 48.7183C12.7418 46.1095 12.8265 45.7293 13.2816 45.7293H13.5464L13.6669 46.1813C13.7332 46.4299 13.7887 47.4696 13.7902 48.4917L13.7929 50.3501H13.9643H14.1357L14.2646 49.1107C14.3355 48.4291 14.4158 47.8499 14.443 47.8237C14.4703 47.7975 15.2547 47.745 16.1861 47.707L17.8797 47.6379L18.2253 48.367L18.5709 49.0962L19.1292 49.237C19.4364 49.3145 19.7982 49.4701 19.9334 49.5829L20.1791 49.7878L19.8918 50.3462L19.6045 50.9045L18.8705 51.3398L18.1365 51.775L18.2412 54.1264C18.2987 55.4197 18.4105 56.636 18.4895 56.8294L18.6332 57.181H18.9117H19.1901L19.1929 54.9208C19.1944 53.6776 19.2523 52.4478 19.3215 52.1877L19.4475 51.7149L22.4672 51.8107L25.4869 51.9064L26.2298 52.1404C26.6383 52.2691 27.0945 52.4968 27.2434 52.6465C27.3923 52.7961 27.6877 52.9533 27.8998 52.9958L28.2854 53.0729V54.7754V56.4778L28.4853 56.5399L28.6852 56.602L28.8152 56.1381C28.8867 55.8829 28.9542 55.2069 28.9652 54.6358C28.9875 53.4741 29.1297 52.9619 29.4299 52.9619C29.541 52.9619 29.9393 52.6907 30.315 52.3592L30.998 51.7565H31.571H32.144L32.286 54.0412L32.4281 56.3259L32.5806 56.574L32.7332 56.822L32.862 56.6126L32.9908 56.4031L33.1652 50.0114L33.3396 43.6198L33.5324 43.1219L33.7252 42.6241L34.1037 43.3228L34.4823 44.0216L34.5438 49.5967L34.6054 55.1719H35.4933H36.3813L36.7811 55.5737C37.5727 56.3694 37.7717 56.023 37.8005 53.7993L37.8204 52.2587L37.9805 52.761C38.0685 53.0373 38.1505 53.8509 38.1626 54.5692C38.1748 55.2874 38.2405 56.2141 38.3087 56.6285L38.4326 57.3819H38.6849H38.9372L39.0674 57.0407C39.1391 56.853 39.2829 53.9825 39.3871 50.6619L39.5764 44.6243L39.8006 43.528L40.0249 42.4317L40.3404 43.0258L40.6558 43.6198L40.792 49.6047C40.8668 52.8964 40.9736 55.6354 41.0293 55.6913C41.0849 55.7472 41.1903 55.3142 41.2633 54.729C41.3364 54.1439 41.5595 53.0322 41.7589 52.2587L42.1217 50.8524L42.275 51.8227L42.4284 52.793L42.7166 52.9041L43.0048 53.0153L43.1948 52.8243C43.4153 52.6027 43.5968 51.5255 44.1995 46.8631L44.6373 43.4765L44.7863 43.749C45.0045 44.1481 45.5426 47.5055 45.7958 50.0488L46.0159 52.2587L46.2095 52.6225L46.4031 52.9862L46.7386 52.9212L47.074 52.8563L47.2874 51.8543L47.5008 50.8524L47.7587 52.4596C47.9005 53.3436 48.0833 54.189 48.165 54.3382L48.3135 54.6096L48.4363 53.2887L48.559 51.9678L48.8544 51.5105L49.1499 51.0533L49.3763 48.1402C49.5008 46.5379 49.5779 43.2136 49.7015 40.7819L50.051 33.9043L50.4086 37.9061C50.4939 38.8617 50.6924 39.8726 50.7191 40.2423C50.7363 40.4792 50.7087 40.6694 50.7599 40.8577L50.8353 40.8552L50.9358 40.7772L51.0719 39.5485C51.137 38.9611 51.2807 37.2835 51.4137 35.7591L51.657 32.9717L51.8103 36.8893C51.8946 39.0441 52.0194 41.212 52.0875 41.707L52.2114 42.6069L52.3741 42.069L52.7374 41.405L53.0278 42.1597C53.1101 42.3736 53.1918 42.5624 53.252 42.5019C53.3838 42.3695 53.3866 37.498 53.6523 35.4074L53.9095 33.2578L54.1463 35.5957C54.2414 36.5337 54.3338 38.0465 54.2777 38.9045L54.4104 40.4679L54.4806 40.6372L54.7765 40.6932L54.8649 40.5036C54.9093 40.4082 54.964 39.8999 55.0204 39.1781L55.376 34.6269L55.4426 34.652L55.5218 34.6644L55.6428 41.0507C55.6737 42.686 55.9089 45.6489 56.0709 47.6378C56.233 49.6268 56.3668 51.9043 56.3683 52.6989L56.3709 54.1436L56.5689 54.2666L56.7669 54.3896L57.7011 53.6726L58.6353 52.9557L59.0523 53.0766C59.2817 53.143 59.6526 53.4156 59.8766 53.6824L60.2839 54.1673H60.7182H61.1524L61.392 54.9709L61.6315 55.7746H61.8997C62.0473 55.7746 62.1764 55.752 62.1868 55.7243C62.1971 55.6967 62.2669 54.0703 62.3419 52.11L62.4781 48.5459L62.8265 48.1957L63.1749 47.8456L63.521 48.0616C63.7113 48.1804 63.994 48.538 64.1492 48.8563L64.4313 49.435L64.5093 52.9564C64.5523 54.8931 64.6308 56.6869 64.684 56.9425L64.7806 57.4072L65.3154 57.3443L65.8502 57.2814L65.9881 56.7791C66.064 56.5029 66.1456 55.7344 66.1696 55.0714C66.1936 54.4084 66.2735 53.5947 66.3472 53.2632L66.4812 52.6605L66.7233 53.6033L66.9655 54.5462L66.9686 55.6124L66.9717 56.6787L67.1602 56.9783L67.3487 57.278L67.5811 57.0445L67.8134 56.8109L67.9767 48.3067C68.0665 43.6294 68.1913 38.1603 68.254 36.1531L68.368 32.5036L68.674 30.7399L68.98 28.9762L69.3619 28.1086L69.7437 27.2411L70.0563 27.1206L70.3689 27L70.6986 27.2736C70.88 27.4241 71.2033 27.9438 71.4171 28.4284L71.8058 29.3096L72.0795 30.8393L72.3532 32.369L72.5587 36.8894C72.6717 39.3756 72.8463 44.9658 72.9466 49.3121C73.047 53.6584 73.1815 57.2672 73.2456 57.3317L73.3622 57.4488L73.5121 57.2982L73.6621 57.1476L73.7163 48.1737C73.7461 43.2381 73.8177 38.906 73.8753 38.5469L73.98 37.8939H75.2703H76.5606L76.562 45.2772C76.5628 49.3381 76.6215 53.2793 76.6926 54.0356L76.8218 55.4107L77.4309 55.2883L78.0399 55.1658L78.1967 54.9177L78.3535 54.6696L78.3763 51.0533C78.3889 49.0643 78.4578 46.9407 78.5293 46.3341L78.6595 45.2312L79.0275 45.1606L79.3955 45.0901L79.7849 45.5101C79.9991 45.7412 80.3021 45.9302 80.4583 45.9302H80.7424L80.9489 46.6836C81.0625 47.098 81.1785 47.6991 81.2068 48.0194L81.2582 48.6019L81.6579 48.8231C82.2546 49.1531 82.3501 49.359 82.366 50.3501C82.3741 50.8474 82.4441 51.6158 82.5217 52.0578L82.6628 52.8615L83.0599 52.9177L83.457 52.9739L84.2066 52.3506L84.9562 51.7272V47.7402V43.7531L85.0804 43.4278L85.2046 43.1025L85.8813 42.8184L86.558 42.5342L86.7566 42.0091C86.8658 41.7204 86.9552 41.1735 86.9552 40.794V40.1039L87.2051 40.0835C87.6337 40.0486 88.8507 40.1379 88.9242 40.2097C88.9627 40.2472 89.0585 44.0344 89.1372 48.6255L89.2803 56.973L89.4171 57.1105L89.5539 57.2479L89.6785 57.1227L89.8032 56.9974L89.9081 47.6287L90.013 38.2599L90.4825 38.045L90.952 37.83L91.7627 38.0741L92.5735 38.3182L92.6497 38.5581C92.6916 38.69 92.7865 40.2278 92.8606 41.9754L92.9954 45.1528L93.4735 45.6713L93.9516 46.1898V46.6381V47.0864L94.2014 47.2948L94.4513 47.5032L95.9006 47.6467L97.3498 47.7903V49.8354V51.8806L97.0634 52.2706L96.777 52.6606L96.5237 52.4094C96.1918 52.0804 96.0185 52.0923 95.8805 52.4538L95.7676 52.7494L96.0733 53.0566L96.3789 53.3637H97.0393C97.4025 53.3637 97.9807 53.3072 98.3243 53.2382L98.949 53.1126V51.6177V50.1228L98.7362 49.7232L98.5234 49.3235L98.5172 46.5163L98.511 43.709L98.8302 43.2194L99.1494 42.7298V41.7852C99.1494 41.2656 99.1857 40.8782 99.2303 40.9243C99.2748 40.9703 99.4205 43.2194 99.5541 45.9222L99.797 50.8364L99.5731 50.9113L99.3493 50.9863V51.9873V52.9883L99.5281 53.3267L99.7068 53.6651L99.8534 57.5325L100 61.4H49.9998H0V55.9755ZM9.70444 45.1482L9.56255 42.7589L9.67801 42.0941L9.94396 41.4798L10.2152 40.8673L10.0852 38.8936L10.3991 40.9027L10.7882 41.4246L11.2475 41.8128L11.7068 42.2261L11.0135 42.85C10.6978 43.134 10.5445 43.4542 10.4425 43.3462C10.7167 43.4273 10.498 43.3572 10.401 43.5113L10.0867 43.6148L10.1701 45.532C10.2298 46.6211 9.98141 49.1632 9.92455 49.1632C9.86772 49.1632 9.70721 46.4875 9.62917 45.1734L9.70444 45.1482ZM54.7452 32.8334L55.1716 32.3891L55.5494 32.5545L55.6513 32.8712L55.4616 33.3392L54.996 33.3408L54.7452 32.8334ZM49.8012 32.5524L50.2057 32.369L50.5364 32.4688L50.5662 32.8838L50.2197 33.169L49.8983 33.0257L49.8012 32.5524ZM51.0857 30.5482L51.6198 29.9581L52.0004 30.2253C52.2723 30.4162 52.2233 30.9188 51.9303 31.1431L51.3667 31.1888L51.0857 30.5482ZM53.2487 30.4728L53.5778 29.7943L54.0822 29.8884L54.3107 30.4236L54.2329 30.8315C54.0707 31.1556 53.2454 31.0727 53.2487 30.4728Z" fill="#051E39"/>
</svg>
