<svg width="1000" height="257" viewBox="0 0 1000 257" fill="none" xmlns="http://www.w3.org/2000/svg">
<path d="M0 0H1000V256.41H0V0Z" fill="#FFCA10"/>
<path d="M64.0977 185.14C56.6244 185.14 49.5944 183.493 43.0077 180.2C36.5477 176.907 31.3543 172.22 27.4277 166.14L35.5977 156.64C39.271 161.96 43.5144 166.013 48.3277 168.8C53.141 171.587 58.461 172.98 64.2877 172.98C80.7544 172.98 88.9877 163.227 88.9877 143.72V63.16H40.3477V51H102.858V143.15C102.858 157.21 99.5644 167.723 92.9777 174.69C86.5177 181.657 76.891 185.14 64.0977 185.14ZM199.373 185.14C189.367 185.14 180.057 183.493 171.443 180.2C162.957 176.78 155.547 172.03 149.213 165.95C143.007 159.743 138.13 152.587 134.583 144.48C131.163 136.247 129.453 127.253 129.453 117.5C129.453 107.747 131.163 98.8167 134.583 90.71C138.13 82.4767 143.007 75.32 149.213 69.24C155.547 63.0333 162.957 58.2833 171.443 54.99C179.93 51.57 189.24 49.86 199.373 49.86C209.38 49.86 218.627 51.57 227.113 54.99C235.6 58.2833 242.947 62.97 249.153 69.05C255.487 75.13 260.363 82.2867 263.783 90.52C267.33 98.7533 269.103 107.747 269.103 117.5C269.103 127.253 267.33 136.247 263.783 144.48C260.363 152.713 255.487 159.87 249.153 165.95C242.947 172.03 235.6 176.78 227.113 180.2C218.627 183.493 209.38 185.14 199.373 185.14ZM199.373 172.6C207.353 172.6 214.7 171.27 221.413 168.61C228.253 165.823 234.143 161.96 239.083 157.02C244.15 151.953 248.077 146.127 250.863 139.54C253.65 132.827 255.043 125.48 255.043 117.5C255.043 109.52 253.65 102.237 250.863 95.65C248.077 88.9367 244.15 83.11 239.083 78.17C234.143 73.1033 228.253 69.24 221.413 66.58C214.7 63.7933 207.353 62.4 199.373 62.4C191.393 62.4 183.983 63.7933 177.143 66.58C170.303 69.24 164.35 73.1033 159.283 78.17C154.343 83.11 150.417 88.9367 147.503 95.65C144.717 102.237 143.323 109.52 143.323 117.5C143.323 125.353 144.717 132.637 147.503 139.35C150.417 146.063 154.343 151.953 159.283 157.02C164.35 161.96 170.303 165.823 177.143 168.61C183.983 171.27 191.393 172.6 199.373 172.6ZM285.988 184V51H330.828V184H285.988ZM348.614 184V51H385.474L453.114 131.94H436.014V51H479.714V184H442.854L375.214 103.06H392.314V184H348.614ZM539.319 184L483.079 51H531.339L577.129 163.29H548.439L595.559 51H639.639L583.399 184H539.319ZM640.301 184V51H685.141V184H640.301ZM731.807 184V85.77H692.857V51H815.597V85.77H776.647V184H731.807ZM891.318 187.04C880.551 187.04 870.544 185.33 861.298 181.91C852.178 178.49 844.261 173.677 837.548 167.47C830.834 161.137 825.578 153.727 821.778 145.24C818.104 136.753 816.268 127.507 816.268 117.5C816.268 107.367 818.104 98.12 821.778 89.76C825.578 81.2733 830.834 73.9267 837.548 67.72C844.261 61.3867 852.178 56.51 861.298 53.09C870.544 49.67 880.551 47.96 891.318 47.96C902.211 47.96 912.218 49.67 921.338 53.09C930.458 56.51 938.374 61.3867 945.088 67.72C951.801 73.9267 956.994 81.2733 960.668 89.76C964.468 98.12 966.368 107.367 966.368 117.5C966.368 127.507 964.468 136.753 960.668 145.24C956.994 153.727 951.801 161.137 945.088 167.47C938.374 173.677 930.458 178.49 921.338 181.91C912.218 185.33 902.211 187.04 891.318 187.04ZM891.318 150.75C895.498 150.75 899.361 149.99 902.908 148.47C906.581 146.95 909.748 144.797 912.408 142.01C915.194 139.097 917.348 135.613 918.868 131.56C920.388 127.38 921.148 122.693 921.148 117.5C921.148 112.307 920.388 107.683 918.868 103.63C917.348 99.45 915.194 95.9667 912.408 93.18C909.748 90.2667 906.581 88.05 902.908 86.53C899.361 85.01 895.498 84.25 891.318 84.25C887.138 84.25 883.211 85.01 879.538 86.53C875.991 88.05 872.824 90.2667 870.038 93.18C867.378 95.9667 865.288 99.45 863.768 103.63C862.248 107.683 861.488 112.307 861.488 117.5C861.488 122.693 862.248 127.38 863.768 131.56C865.288 135.613 867.378 139.097 870.038 142.01C872.824 144.797 875.991 146.95 879.538 148.47C883.211 149.99 887.138 150.75 891.318 150.75Z" fill="#07203C"/>
</svg>
