<svg xmlns="http://www.w3.org/2000/svg" xmlns:v="https://svgstorm.com"
viewBox = "0 0 27 35"
width="27"
height="35">
<g fill="None" fill-opacity="0.0" stroke="#000000" stroke-opacity="0.00" stroke-width="0.3"><path d="
M 0.00 8.00 
C 0.50 8.00 1.00 8.00 1.00 8.00
C 1.00 7.50 1.00 7.00 1.00 7.00
C 1.03 6.65 1.88 6.26 2.00 6.00
C 2.19 5.59 2.00 5.00 2.00 5.00
C 2.42 3.77 3.82 2.40 5.00 2.00
C 5.45 1.85 6.00 2.00 6.00 2.00
C 6.26 1.88 6.65 1.03 7.00 1.00
C 7.50 0.95 8.00 1.00 8.00 1.00
C 7.75 0.75 8.00 0.00 8.00 0.00
L 0.00 0.00
L 0.00 8.00 Z"/>
</g>
<g fill="None" fill-opacity="0.0" stroke="#FFDBED" stroke-opacity="0.05" stroke-width="0.3"><path d="
M 8.00 1.00 
C 8.41 0.81 9.00 1.00 9.00 1.00
C 9.25 0.75 9.00 0.00 9.00 0.00
L 8.00 0.00
C 8.00 0.00 7.75 0.75 8.00 1.00 Z"/>
</g>
<g fill="None" fill-opacity="0.0" stroke="#FF9DA1" stroke-opacity="0.79" stroke-width="0.3"><path d="
M 9.00 1.00 
C 9.35 0.97 9.84 0.34 10.00 0.00
L 9.00 0.00
C 9.00 0.00 9.25 0.75 9.00 1.00 Z"/>
</g>
<g fill="None" fill-opacity="0.0" stroke="#E81917" stroke-opacity="1.00" stroke-width="0.3"><path d="
M 9.00 1.00 
C 9.00 1.00 8.41 0.81 8.00 1.00
C 7.74 1.12 7.35 1.97 7.00 2.00
C 6.50 2.05 6.00 2.00 6.00 2.00
C 5.74 2.12 5.31 2.80 5.00 3.00
C 3.94 3.67 3.65 3.98 3.00 5.00
C 2.80 5.31 2.25 5.75 2.00 6.00
C 1.75 6.25 1.12 6.74 1.00 7.00
C 1.00 7.00 1.00 7.50 1.00 8.00
C 1.00 8.50 1.00 9.00 1.00 9.00
C 0.97 9.35 0.34 9.84 0.00 10.00
L 0.00 16.00
C 0.34 16.17 0.97 16.65 1.00 17.00
C 1.05 17.50 1.00 18.00 1.00 18.00
C 1.00 18.50 1.00 19.00 1.00 19.00
C 1.12 19.26 1.97 19.65 2.00 20.00
C 2.05 20.50 2.00 21.00 2.00 21.00
C 2.12 21.26 2.97 21.65 3.00 22.00
C 3.05 22.50 3.00 23.00 3.00 23.00
C 3.72 23.75 4.81 23.73 5.00 25.00
C 5.07 25.49 5.00 26.00 5.00 26.00
C 5.12 26.26 5.75 26.76 6.00 27.00
C 6.84 27.80 7.36 27.98 8.00 29.00
C 8.30 29.48 8.66 30.64 9.00 31.00
C 9.24 31.26 9.75 31.76 10.00 32.00
C 10.69 32.66 11.38 33.35 12.00 34.00
C 12.24 34.25 12.84 34.67 13.00 35.00
L 14.00 35.00
C 14.95 33.67 16.01 32.22 17.00 31.00
C 18.00 29.76 18.84 28.98 20.00 28.00
C 20.26 27.78 20.88 27.26 21.00 27.00
C 21.19 26.59 21.00 26.00 21.00 26.00
C 21.03 25.65 21.75 25.25 22.00 25.00
C 22.25 24.75 22.88 24.26 23.00 24.00
C 23.19 23.59 23.00 23.00 23.00 23.00
C 23.03 22.65 23.88 22.26 24.00 22.00
C 24.19 21.59 24.00 21.00 24.00 21.00
C 24.03 20.65 24.88 20.26 25.00 20.00
C 25.19 19.59 25.00 19.00 25.00 19.00
C 25.03 18.65 25.88 18.26 26.00 18.00
C 25.75 17.75 26.00 17.00 26.00 17.00
C 26.00 16.50 26.00 16.00 26.00 16.00
C 26.03 15.65 26.67 15.17 27.00 15.00
L 27.00 11.00
C 26.08 10.98 25.96 9.65 26.00 9.00
C 26.03 8.50 26.00 8.00 26.00 8.00
C 26.00 7.50 26.00 7.00 26.00 7.00
C 25.88 6.74 25.26 6.22 25.00 6.00
C 23.80 4.99 22.97 4.15 22.00 3.00
C 21.78 2.74 21.26 2.12 21.00 2.00
C 20.59 1.81 20.00 2.00 20.00 2.00
C 19.65 1.97 19.26 1.12 19.00 1.00
C 18.75 1.25 18.00 1.00 18.00 1.00
C 17.65 0.97 17.17 0.34 17.00 0.00
L 10.00 0.00
C 9.84 0.34 9.35 0.97 9.00 1.00
M 16.00 5.00 
C 16.28 5.25 17.00 5.00 17.00 5.00
C 17.35 5.03 17.74 5.78 18.00 6.00
C 19.20 7.01 20.03 7.85 21.00 9.00
C 21.22 9.26 21.90 9.65 22.00 10.00
C 22.39 11.41 22.00 13.53 22.00 15.00
C 22.00 15.50 22.00 16.00 22.00 16.00
C 21.97 16.35 21.12 16.74 21.00 17.00
C 20.81 17.41 21.00 18.00 21.00 18.00
C 20.87 18.84 19.81 19.88 19.00 20.00
C 18.51 20.07 18.00 20.00 18.00 20.00
C 17.74 20.12 17.35 20.97 17.00 21.00
C 16.50 21.05 16.00 21.00 16.00 21.00
C 15.74 21.12 15.02 22.04 15.00 22.00
C 14.81 21.70 12.39 22.12 12.00 22.00
C 11.65 21.89 11.26 21.12 11.00 21.00
C 10.50 21.00 10.00 21.00 10.00 21.00
C 9.50 21.00 9.00 21.00 9.00 21.00
C 7.77 20.58 6.40 19.18 6.00 18.00
C 5.85 17.55 6.00 17.00 6.00 17.00
C 5.88 16.74 5.03 16.35 5.00 16.00
C 4.95 15.50 5.00 15.00 5.00 15.00
C 3.68 13.64 3.70 12.34 5.00 11.00
C 5.00 10.50 5.00 10.00 5.00 10.00
C 5.03 9.65 5.78 9.26 6.00 9.00
C 7.01 7.80 7.85 6.97 9.00 6.00
C 9.26 5.78 9.65 5.03 10.00 5.00
C 10.50 4.95 11.00 5.00 11.00 5.00
C 12.57 3.62 14.46 3.64 16.00 5.00 Z"/>
</g>
<g fill="None" fill-opacity="0.0" stroke="#FEA59E" stroke-opacity="0.28" stroke-width="0.3"><path d="
M 18.00 1.00 
C 17.75 0.75 18.00 0.00 18.00 0.00
L 17.00 0.00
C 17.17 0.34 17.65 0.97 18.00 1.00 Z"/>
</g>
<g fill="None" fill-opacity="0.0" stroke="#FFFFFF" stroke-opacity="0.00" stroke-width="0.3"><path d="
M 18.00 1.00 
C 18.00 1.00 18.75 1.25 19.00 1.00
C 18.75 0.75 19.00 0.00 19.00 0.00
L 18.00 0.00
C 18.00 0.00 17.75 0.75 18.00 1.00 Z"/>
</g>
<g fill="None" fill-opacity="0.0" stroke="#000000" stroke-opacity="0.00" stroke-width="0.3"><path d="
M 19.00 1.00 
C 19.25 1.25 20.00 1.00 20.00 1.00
C 20.35 1.03 20.75 1.75 21.00 2.00
C 21.25 2.25 21.74 2.88 22.00 3.00
C 22.41 3.19 23.00 3.00 23.00 3.00
C 23.84 3.13 24.88 4.19 25.00 5.00
C 25.07 5.49 25.00 6.00 25.00 6.00
C 25.12 6.26 25.97 6.65 26.00 7.00
C 26.00 7.00 26.00 7.50 26.00 8.00
C 26.25 7.75 27.00 8.00 27.00 8.00
L 27.00 0.00
L 19.00 0.00
C 19.00 0.00 18.75 0.75 19.00 1.00 Z"/>
</g>
<g fill="None" fill-opacity="0.0" stroke="#FFDBDE" stroke-opacity="0.36" stroke-width="0.3"><path d="
M 6.00 2.00 
C 6.00 2.00 6.50 2.05 7.00 2.00
C 7.25 1.75 7.00 1.00 7.00 1.00
C 6.65 1.03 6.26 1.88 6.00 2.00 Z"/>
</g>
<g fill="None" fill-opacity="0.0" stroke="#E27075" stroke-opacity="1.00" stroke-width="0.3"><path d="
M 7.00 2.00 
C 7.35 1.97 7.74 1.12 8.00 1.00
C 8.00 1.00 7.50 0.95 7.00 1.00
C 7.00 1.00 7.25 1.75 7.00 2.00 Z"/>
</g>
<g fill="None" fill-opacity="0.0" stroke="#F58285" stroke-opacity="1.00" stroke-width="0.3"><path d="
M 20.00 2.00 
C 19.75 1.75 20.00 1.00 20.00 1.00
C 20.00 1.00 19.25 1.25 19.00 1.00
C 19.26 1.12 19.65 1.97 20.00 2.00 Z"/>
</g>
<g fill="None" fill-opacity="0.0" stroke="#FFFFFF" stroke-opacity="0.02" stroke-width="0.3"><path d="
M 20.00 2.00 
C 20.00 2.00 20.59 1.81 21.00 2.00
C 20.75 1.75 20.35 1.03 20.00 1.00
C 20.00 1.00 19.75 1.75 20.00 2.00 Z"/>
</g>
<g fill="None" fill-opacity="0.0" stroke="#FFE7E0" stroke-opacity="0.22" stroke-width="0.3"><path d="
M 2.00 5.00 
C 2.25 4.75 3.00 5.00 3.00 5.00
C 3.65 3.98 3.94 3.67 5.00 3.00
C 5.25 2.74 5.00 2.00 5.00 2.00
C 3.82 2.40 2.42 3.77 2.00 5.00 Z"/>
</g>
<g fill="None" fill-opacity="0.0" stroke="#FE9495" stroke-opacity="1.00" stroke-width="0.3"><path d="
M 5.00 3.00 
C 5.31 2.80 5.74 2.12 6.00 2.00
C 6.00 2.00 5.45 1.85 5.00 2.00
C 5.00 2.00 5.25 2.74 5.00 3.00 Z"/>
</g>
<g fill="None" fill-opacity="0.0" stroke="#FFADAA" stroke-opacity="0.72" stroke-width="0.3"><path d="
M 22.00 3.00 
C 21.74 2.88 21.25 2.25 21.00 2.00
C 21.26 2.12 21.78 2.74 22.00 3.00 Z"/>
</g>
<g fill="None" fill-opacity="0.0" stroke="#FE9598" stroke-opacity="1.00" stroke-width="0.3"><path d="
M 25.00 6.00 
C 25.00 6.00 25.07 5.49 25.00 5.00
C 24.45 4.42 23.53 3.51 23.00 3.00
C 23.00 3.00 22.41 3.19 22.00 3.00
C 22.97 4.15 23.80 4.99 25.00 6.00 Z"/>
</g>
<g fill="None" fill-opacity="0.0" stroke="#FFFFFF" stroke-opacity="0.00" stroke-width="0.3"><path d="
M 25.00 5.00 
C 24.88 4.19 23.84 3.13 23.00 3.00
C 23.53 3.51 24.45 4.42 25.00 5.00 Z"/>
</g>
<g fill="None" fill-opacity="0.0" stroke="#F47879" stroke-opacity="1.00" stroke-width="0.3"><path d="
M 11.00 5.00 
C 11.68 4.70 15.32 4.70 16.00 5.00
C 14.46 3.64 12.57 3.62 11.00 5.00 Z"/>
</g>
<g fill="None" fill-opacity="0.0" stroke="#FE8181" stroke-opacity="1.00" stroke-width="0.3"><path d="
M 2.00 6.00 
C 2.25 5.75 2.80 5.31 3.00 5.00
C 3.00 5.00 2.25 4.75 2.00 5.00
C 2.00 5.00 2.19 5.59 2.00 6.00 Z"/>
</g>
<g fill="None" fill-opacity="0.0" stroke="#FFAEAB" stroke-opacity="0.62" stroke-width="0.3"><path d="
M 9.00 6.00 
C 9.18 5.76 10.00 6.00 10.00 6.00
C 10.25 5.75 10.00 5.00 10.00 5.00
C 9.65 5.03 9.26 5.78 9.00 6.00 Z"/>
</g>
<g fill="None" fill-opacity="0.0" stroke="#FFFFFF" stroke-opacity="0.00" stroke-width="0.3"><path d="
M 10.00 6.00 
C 10.35 5.97 10.74 5.12 11.00 5.00
C 11.00 5.00 10.50 4.95 10.00 5.00
C 10.00 5.00 10.25 5.75 10.00 6.00 Z"/>
</g>
<g fill="None" fill-opacity="0.0" stroke="#000000" stroke-opacity="0.00" stroke-width="0.3"><path d="
M 10.00 6.00 
C 10.00 6.00 9.18 5.76 9.00 6.00
C 8.03 7.31 7.17 8.01 6.00 9.00
C 5.74 9.22 5.12 9.74 5.00 10.00
C 5.00 10.00 5.00 10.50 5.00 11.00
C 5.00 12.33 5.00 13.67 5.00 15.00
C 5.00 15.00 4.95 15.50 5.00 16.00
C 5.12 16.26 5.97 16.65 6.00 17.00
C 6.00 17.00 5.85 17.55 6.00 18.00
C 6.73 18.80 8.14 19.42 9.00 20.00
C 9.31 20.21 9.74 20.88 10.00 21.00
C 10.00 21.00 10.50 21.00 11.00 21.00
C 11.50 21.00 12.00 21.00 12.00 21.00
C 13.00 21.00 14.00 21.00 15.00 21.00
C 15.50 21.00 16.00 21.00 16.00 21.00
C 16.00 21.00 16.50 21.05 17.00 21.00
C 17.26 20.88 17.65 20.03 18.00 20.00
C 18.00 20.00 18.51 20.07 19.00 20.00
C 19.47 19.77 19.76 18.38 20.00 18.00
C 20.20 17.69 20.88 17.26 21.00 17.00
C 21.19 16.59 21.00 16.00 21.00 16.00
C 21.03 15.65 21.88 15.26 22.00 15.00
C 22.00 13.53 22.39 11.41 22.00 10.00
C 21.88 9.74 21.26 9.22 21.00 9.00
C 19.77 7.96 18.94 7.27 18.00 6.00
C 17.82 5.76 17.00 6.00 17.00 6.00
C 16.65 5.97 16.26 5.12 16.00 5.00
C 15.32 4.70 11.68 4.70 11.00 5.00
C 10.74 5.12 10.35 5.97 10.00 6.00 Z"/>
</g>
<g fill="None" fill-opacity="0.0" stroke="#FFD1E8" stroke-opacity="0.04" stroke-width="0.3"><path d="
M 17.00 6.00 
C 16.75 5.75 17.00 5.00 17.00 5.00
C 17.00 5.00 16.28 5.25 16.00 5.00
C 16.26 5.12 16.65 5.97 17.00 6.00 Z"/>
</g>
<g fill="None" fill-opacity="0.0" stroke="#FE9493" stroke-opacity="1.00" stroke-width="0.3"><path d="
M 17.00 6.00 
C 17.00 6.00 17.82 5.76 18.00 6.00
C 17.74 5.78 17.35 5.03 17.00 5.00
C 17.00 5.00 16.75 5.75 17.00 6.00 Z"/>
</g>
<g fill="None" fill-opacity="0.0" stroke="#FFD7D5" stroke-opacity="0.50" stroke-width="0.3"><path d="
M 1.00 7.00 
C 1.12 6.74 1.75 6.25 2.00 6.00
C 1.88 6.26 1.03 6.65 1.00 7.00 Z"/>
</g>
<g fill="None" fill-opacity="0.0" stroke="#FFFFFF" stroke-opacity="0.01" stroke-width="0.3"><path d="
M 6.00 9.00 
C 7.17 8.01 8.03 7.31 9.00 6.00
C 7.85 6.97 7.01 7.80 6.00 9.00 Z"/>
</g>
<g fill="None" fill-opacity="0.0" stroke="#FFE8E1" stroke-opacity="0.03" stroke-width="0.3"><path d="
M 21.00 9.00 
C 20.03 7.85 19.20 7.01 18.00 6.00
C 18.94 7.27 19.77 7.96 21.00 9.00 Z"/>
</g>
<g fill="None" fill-opacity="0.0" stroke="#FFE2DB" stroke-opacity="0.31" stroke-width="0.3"><path d="
M 26.00 7.00 
C 25.97 6.65 25.12 6.26 25.00 6.00
C 25.26 6.22 25.88 6.74 26.00 7.00 Z"/>
</g>
<g fill="None" fill-opacity="0.0" stroke="#FFD2D2" stroke-opacity="0.07" stroke-width="0.3"><path d="
M 0.00 9.00 
C 0.50 9.00 1.00 9.00 1.00 9.00
C 1.00 9.00 1.00 8.50 1.00 8.00
C 1.00 8.00 0.50 8.00 0.00 8.00
L 0.00 9.00 Z"/>
</g>
<g fill="None" fill-opacity="0.0" stroke="#FFEAE5" stroke-opacity="0.19" stroke-width="0.3"><path d="
M 26.00 9.00 
C 26.25 9.25 27.00 9.00 27.00 9.00
L 27.00 8.00
C 27.00 8.00 26.25 7.75 26.00 8.00
C 26.00 8.00 26.03 8.50 26.00 9.00 Z"/>
</g>
<g fill="None" fill-opacity="0.0" stroke="#FE7F7B" stroke-opacity="0.86" stroke-width="0.3"><path d="
M 0.00 10.00 
C 0.34 9.84 0.97 9.35 1.00 9.00
C 1.00 9.00 0.50 9.00 0.00 9.00
L 0.00 10.00 Z"/>
</g>
<g fill="None" fill-opacity="0.0" stroke="#FFB1BA" stroke-opacity="0.55" stroke-width="0.3"><path d="
M 5.00 10.00 
C 5.12 9.74 5.74 9.22 6.00 9.00
C 5.78 9.26 5.03 9.65 5.00 10.00 Z"/>
</g>
<g fill="None" fill-opacity="0.0" stroke="#FB918B" stroke-opacity="1.00" stroke-width="0.3"><path d="
M 22.00 10.00 
C 21.90 9.65 21.22 9.26 21.00 9.00
C 21.26 9.22 21.88 9.74 22.00 10.00 Z"/>
</g>
<g fill="None" fill-opacity="0.0" stroke="#FF9C94" stroke-opacity="1.00" stroke-width="0.3"><path d="
M 27.00 11.00 
L 27.00 9.00
C 27.00 9.00 26.25 9.25 26.00 9.00
C 25.96 9.65 26.08 10.98 27.00 11.00 Z"/>
</g>
<g fill="None" fill-opacity="0.0" stroke="#F6787A" stroke-opacity="1.00" stroke-width="0.3"><path d="
M 5.00 15.00 
C 5.00 13.67 5.00 12.33 5.00 11.00
C 3.70 12.34 3.68 13.64 5.00 15.00 Z"/>
</g>
<g fill="None" fill-opacity="0.0" stroke="#FFFFFF" stroke-opacity="0.00" stroke-width="0.3"><path d="
M 21.00 16.00 
C 21.25 15.75 22.00 16.00 22.00 16.00
C 22.00 16.00 22.00 15.50 22.00 15.00
C 21.88 15.26 21.03 15.65 21.00 16.00 Z"/>
</g>
<g fill="None" fill-opacity="0.0" stroke="#FE6F72" stroke-opacity="1.00" stroke-width="0.3"><path d="
M 26.00 16.00 
C 26.25 15.75 27.00 16.00 27.00 16.00
L 27.00 15.00
C 26.67 15.17 26.03 15.65 26.00 16.00 Z"/>
</g>
<g fill="None" fill-opacity="0.0" stroke="#FE8282" stroke-opacity="1.00" stroke-width="0.3"><path d="
M 0.00 17.00 
C 0.50 17.00 1.00 17.00 1.00 17.00
C 0.97 16.65 0.34 16.17 0.00 16.00
L 0.00 17.00 Z"/>
</g>
<g fill="None" fill-opacity="0.0" stroke="#FFD6D6" stroke-opacity="0.39" stroke-width="0.3"><path d="
M 6.00 17.00 
C 5.97 16.65 5.12 16.26 5.00 16.00
C 5.03 16.35 5.88 16.74 6.00 17.00 Z"/>
</g>
<g fill="None" fill-opacity="0.0" stroke="#FFB6AA" stroke-opacity="0.99" stroke-width="0.3"><path d="
M 21.00 17.00 
C 21.12 16.74 21.97 16.35 22.00 16.00
C 22.00 16.00 21.25 15.75 21.00 16.00
C 21.00 16.00 21.19 16.59 21.00 17.00 Z"/>
</g>
<g fill="None" fill-opacity="0.0" stroke="#FFBBB1" stroke-opacity="1.00" stroke-width="0.3"><path d="
M 26.00 17.00 
C 26.25 16.75 27.00 17.00 27.00 17.00
L 27.00 16.00
C 27.00 16.00 26.25 15.75 26.00 16.00
C 26.00 16.00 26.00 16.50 26.00 17.00 Z"/>
</g>
<g fill="None" fill-opacity="0.0" stroke="#FFD1DC" stroke-opacity="0.09" stroke-width="0.3"><path d="
M 0.00 18.00 
C 0.50 18.00 1.00 18.00 1.00 18.00
C 1.00 18.00 1.05 17.50 1.00 17.00
C 1.00 17.00 0.50 17.00 0.00 17.00
L 0.00 18.00 Z"/>
</g>
<g fill="None" fill-opacity="0.0" stroke="#FFE7DB" stroke-opacity="0.08" stroke-width="0.3"><path d="
M 20.00 18.00 
C 20.40 17.80 21.00 18.00 21.00 18.00
C 21.00 18.00 20.81 17.41 21.00 17.00
C 20.88 17.26 20.20 17.69 20.00 18.00 Z"/>
</g>
<g fill="None" fill-opacity="0.0" stroke="#FFE9DD" stroke-opacity="0.65" stroke-width="0.3"><path d="
M 26.00 18.00 
C 26.25 17.75 27.00 18.00 27.00 18.00
L 27.00 17.00
C 27.00 17.00 26.25 16.75 26.00 17.00
C 26.00 17.00 25.75 17.75 26.00 18.00 Z"/>
</g>
<g fill="None" fill-opacity="0.0" stroke="#FFFFFF" stroke-opacity="0.01" stroke-width="0.3"><path d="
M 0.00 19.00 
C 0.50 19.00 1.00 19.00 1.00 19.00
C 1.00 19.00 1.00 18.50 1.00 18.00
C 1.00 18.00 0.50 18.00 0.00 18.00
L 0.00 19.00 Z"/>
</g>
<g fill="None" fill-opacity="0.0" stroke="#FE8F94" stroke-opacity="1.00" stroke-width="0.3"><path d="
M 9.00 21.00 
C 8.75 20.75 9.00 20.00 9.00 20.00
C 8.14 19.42 6.73 18.80 6.00 18.00
C 6.40 19.18 7.77 20.58 9.00 21.00 Z"/>
</g>
<g fill="None" fill-opacity="0.0" stroke="#FF7C77" stroke-opacity="1.00" stroke-width="0.3"><path d="
M 19.00 20.00 
C 19.81 19.88 20.87 18.84 21.00 18.00
C 21.00 18.00 20.40 17.80 20.00 18.00
C 19.76 18.38 19.47 19.77 19.00 20.00 Z"/>
</g>
<g fill="None" fill-opacity="0.0" stroke="#FB7D77" stroke-opacity="1.00" stroke-width="0.3"><path d="
M 25.00 19.00 
C 25.25 18.75 26.00 19.00 26.00 19.00
C 26.05 18.50 26.00 18.00 26.00 18.00
C 25.88 18.26 25.03 18.65 25.00 19.00 Z"/>
</g>
<g fill="None" fill-opacity="0.0" stroke="#000000" stroke-opacity="0.00" stroke-width="0.3"><path d="
M 26.00 19.00 
C 25.97 19.35 25.12 19.74 25.00 20.00
C 24.81 20.41 25.00 21.00 25.00 21.00
C 24.97 21.35 24.12 21.74 24.00 22.00
C 23.81 22.41 24.00 23.00 24.00 23.00
C 23.97 23.35 23.25 23.75 23.00 24.00
C 22.75 24.25 22.12 24.74 22.00 25.00
C 21.81 25.41 22.00 26.00 22.00 26.00
C 21.97 26.35 21.25 26.75 21.00 27.00
C 20.75 27.25 20.22 27.74 20.00 28.00
C 19.05 29.12 17.96 30.03 17.00 31.00
C 16.01 32.22 14.95 33.67 14.00 35.00
L 27.00 35.00
L 27.00 18.00
C 27.00 18.00 26.25 17.75 26.00 18.00
C 26.00 18.00 26.05 18.50 26.00 19.00 Z"/>
</g>
<g fill="None" fill-opacity="0.0" stroke="#000000" stroke-opacity="0.00" stroke-width="0.3"><path d="
M 0.00 35.00 
L 12.00 35.00
C 12.00 34.50 12.00 34.00 12.00 34.00
C 11.39 33.37 10.58 32.61 10.00 32.00
C 9.76 31.75 9.25 31.24 9.00 31.00
C 8.16 30.20 7.64 30.02 7.00 29.00
C 6.70 28.52 6.34 27.36 6.00 27.00
C 5.76 26.74 5.25 26.25 5.00 26.00
C 4.75 25.75 4.04 25.35 4.00 25.00
C 3.97 24.78 3.12 23.13 3.00 23.00
C 2.76 22.74 2.03 22.35 2.00 22.00
C 1.95 21.50 2.00 21.00 2.00 21.00
C 1.88 20.74 1.03 20.35 1.00 20.00
C 0.95 19.50 1.00 19.00 1.00 19.00
C 1.00 19.00 0.50 19.00 0.00 19.00
L 0.00 35.00 Z"/>
</g>
<g fill="None" fill-opacity="0.0" stroke="#FFC5C9" stroke-opacity="1.00" stroke-width="0.3"><path d="
M 1.00 20.00 
C 1.25 20.25 2.00 20.00 2.00 20.00
C 1.97 19.65 1.12 19.26 1.00 19.00
C 1.00 19.00 0.95 19.50 1.00 20.00 Z"/>
</g>
<g fill="None" fill-opacity="0.0" stroke="#FFE6E2" stroke-opacity="0.87" stroke-width="0.3"><path d="
M 25.00 20.00 
C 25.12 19.74 25.97 19.35 26.00 19.00
C 26.00 19.00 25.25 18.75 25.00 19.00
C 25.00 19.00 25.19 19.59 25.00 20.00 Z"/>
</g>
<g fill="None" fill-opacity="0.0" stroke="#FFECEC" stroke-opacity="0.32" stroke-width="0.3"><path d="
M 2.00 21.00 
C 2.00 21.00 2.05 20.50 2.00 20.00
C 2.00 20.00 1.25 20.25 1.00 20.00
C 1.03 20.35 1.88 20.74 2.00 21.00 Z"/>
</g>
<g fill="None" fill-opacity="0.0" stroke="#FFDCEA" stroke-opacity="0.29" stroke-width="0.3"><path d="
M 9.00 21.00 
C 9.00 21.00 9.50 21.00 10.00 21.00
C 9.74 20.88 9.31 20.21 9.00 20.00
C 9.00 20.00 8.75 20.75 9.00 21.00 Z"/>
</g>
<g fill="None" fill-opacity="0.0" stroke="#FFDEDE" stroke-opacity="0.37" stroke-width="0.3"><path d="
M 17.00 21.00 
C 17.35 20.97 17.74 20.12 18.00 20.00
C 17.65 20.03 17.26 20.88 17.00 21.00 Z"/>
</g>
<g fill="None" fill-opacity="0.0" stroke="#DF7676" stroke-opacity="1.00" stroke-width="0.3"><path d="
M 24.00 21.00 
C 24.25 20.75 25.00 21.00 25.00 21.00
C 25.00 21.00 24.81 20.41 25.00 20.00
C 24.88 20.26 24.03 20.65 24.00 21.00 Z"/>
</g>
<g fill="None" fill-opacity="0.0" stroke="#FFCFCE" stroke-opacity="1.00" stroke-width="0.3"><path d="
M 2.00 22.00 
C 2.25 22.25 3.00 22.00 3.00 22.00
C 2.97 21.65 2.12 21.26 2.00 21.00
C 2.00 21.00 1.95 21.50 2.00 22.00 Z"/>
</g>
<g fill="None" fill-opacity="0.0" stroke="#FFB0AD" stroke-opacity="1.00" stroke-width="0.3"><path d="
M 12.00 22.00 
C 11.75 21.73 12.00 21.00 12.00 21.00
C 12.00 21.00 11.50 21.00 11.00 21.00
C 11.26 21.12 11.65 21.89 12.00 22.00 Z"/>
</g>
<g fill="None" fill-opacity="0.0" stroke="#FFDACE" stroke-opacity="0.63" stroke-width="0.3"><path d="
M 12.00 22.00 
C 12.39 22.12 14.81 21.70 15.00 22.00
C 15.25 21.73 15.00 21.00 15.00 21.00
C 14.00 21.00 13.00 21.00 12.00 21.00
C 12.00 21.00 11.75 21.73 12.00 22.00 Z"/>
</g>
<g fill="None" fill-opacity="0.0" stroke="#FEA0A3" stroke-opacity="1.00" stroke-width="0.3"><path d="
M 15.00 22.00 
C 15.02 22.04 15.74 21.12 16.00 21.00
C 16.00 21.00 15.50 21.00 15.00 21.00
C 15.00 21.00 15.25 21.73 15.00 22.00 Z"/>
</g>
<g fill="None" fill-opacity="0.0" stroke="#FFE7E7" stroke-opacity="0.75" stroke-width="0.3"><path d="
M 24.00 22.00 
C 24.12 21.74 24.97 21.35 25.00 21.00
C 25.00 21.00 24.25 20.75 24.00 21.00
C 24.00 21.00 24.19 21.59 24.00 22.00 Z"/>
</g>
<g fill="None" fill-opacity="0.0" stroke="#FFE6E6" stroke-opacity="0.04" stroke-width="0.3"><path d="
M 3.00 23.00 
C 3.00 23.00 3.05 22.50 3.00 22.00
C 3.00 22.00 2.25 22.25 2.00 22.00
C 2.03 22.35 2.76 22.74 3.00 23.00 Z"/>
</g>
<g fill="None" fill-opacity="0.0" stroke="#FE8384" stroke-opacity="1.00" stroke-width="0.3"><path d="
M 23.00 23.00 
C 23.25 22.75 24.00 23.00 24.00 23.00
C 24.00 23.00 23.81 22.41 24.00 22.00
C 23.88 22.26 23.03 22.65 23.00 23.00 Z"/>
</g>
<g fill="None" fill-opacity="0.0" stroke="#FFC6C4" stroke-opacity="0.91" stroke-width="0.3"><path d="
M 4.00 25.00 
C 4.40 25.20 5.00 25.00 5.00 25.00
C 4.81 23.73 3.72 23.75 3.00 23.00
C 3.12 23.13 3.97 24.78 4.00 25.00 Z"/>
</g>
<g fill="None" fill-opacity="0.0" stroke="#FFE7E3" stroke-opacity="0.67" stroke-width="0.3"><path d="
M 23.00 24.00 
C 23.25 23.75 23.97 23.35 24.00 23.00
C 24.00 23.00 23.25 22.75 23.00 23.00
C 23.00 23.00 23.19 23.59 23.00 24.00 Z"/>
</g>
<g fill="None" fill-opacity="0.0" stroke="#FFDAD2" stroke-opacity="1.00" stroke-width="0.3"><path d="
M 22.00 25.00 
C 22.12 24.74 22.75 24.25 23.00 24.00
C 22.88 24.26 22.25 24.75 22.00 25.00 Z"/>
</g>
<g fill="None" fill-opacity="0.0" stroke="#FFE3E3" stroke-opacity="0.11" stroke-width="0.3"><path d="
M 5.00 26.00 
C 5.00 26.00 5.07 25.49 5.00 25.00
C 5.00 25.00 4.40 25.20 4.00 25.00
C 4.04 25.35 4.75 25.75 5.00 26.00 Z"/>
</g>
<g fill="None" fill-opacity="0.0" stroke="#FE8785" stroke-opacity="1.00" stroke-width="0.3"><path d="
M 21.00 26.00 
C 21.25 25.75 22.00 26.00 22.00 26.00
C 22.00 26.00 21.81 25.41 22.00 25.00
C 21.75 25.25 21.03 25.65 21.00 26.00 Z"/>
</g>
<g fill="None" fill-opacity="0.0" stroke="#FFECE3" stroke-opacity="0.56" stroke-width="0.3"><path d="
M 6.00 27.00 
C 5.75 26.76 5.12 26.26 5.00 26.00
C 5.25 26.25 5.76 26.74 6.00 27.00 Z"/>
</g>
<g fill="None" fill-opacity="0.0" stroke="#FFE8E8" stroke-opacity="0.22" stroke-width="0.3"><path d="
M 21.00 27.00 
C 21.25 26.75 21.97 26.35 22.00 26.00
C 22.00 26.00 21.25 25.75 21.00 26.00
C 21.00 26.00 21.19 26.59 21.00 27.00 Z"/>
</g>
<g fill="None" fill-opacity="0.0" stroke="#FFBCB8" stroke-opacity="1.00" stroke-width="0.3"><path d="
M 7.00 29.00 
C 7.40 29.20 8.00 29.00 8.00 29.00
C 7.36 27.98 6.84 27.80 6.00 27.00
C 6.34 27.36 6.70 28.52 7.00 29.00 Z"/>
</g>
<g fill="None" fill-opacity="0.0" stroke="#FFDFDB" stroke-opacity="0.78" stroke-width="0.3"><path d="
M 20.00 28.00 
C 20.22 27.74 20.75 27.25 21.00 27.00
C 20.88 27.26 20.26 27.78 20.00 28.00 Z"/>
</g>
<g fill="None" fill-opacity="0.0" stroke="#FEA6A4" stroke-opacity="1.00" stroke-width="0.3"><path d="
M 17.00 31.00 
C 17.96 30.03 19.05 29.12 20.00 28.00
C 18.84 28.98 18.00 29.76 17.00 31.00 Z"/>
</g>
<g fill="None" fill-opacity="0.0" stroke="#FFEFE8" stroke-opacity="0.19" stroke-width="0.3"><path d="
M 9.00 31.00 
C 8.66 30.64 8.30 29.48 8.00 29.00
C 8.00 29.00 7.40 29.20 7.00 29.00
C 7.64 30.02 8.16 30.20 9.00 31.00 Z"/>
</g>
<g fill="None" fill-opacity="0.0" stroke="#FFE6D8" stroke-opacity="0.60" stroke-width="0.3"><path d="
M 10.00 32.00 
C 9.75 31.76 9.24 31.26 9.00 31.00
C 9.25 31.24 9.76 31.75 10.00 32.00 Z"/>
</g>
<g fill="None" fill-opacity="0.0" stroke="#FFE1E1" stroke-opacity="0.93" stroke-width="0.3"><path d="
M 12.00 34.00 
C 11.38 33.35 10.69 32.66 10.00 32.00
C 10.58 32.61 11.39 33.37 12.00 34.00 Z"/>
</g>
<g fill="None" fill-opacity="0.0" stroke="#FFDED9" stroke-opacity="0.18" stroke-width="0.3"><path d="
M 12.00 35.00 
L 13.00 35.00
C 12.84 34.67 12.24 34.25 12.00 34.00
C 12.00 34.00 12.00 34.50 12.00 35.00 Z"/>
</g>
<g fill="#000000" fill-opacity="0.00" stroke="None">
<path d="
M 0.00 8.00 
C 0.50 8.00 1.00 8.00 1.00 8.00
C 1.00 7.50 1.00 7.00 1.00 7.00
C 1.03 6.65 1.88 6.26 2.00 6.00
C 2.19 5.59 2.00 5.00 2.00 5.00
C 2.42 3.77 3.82 2.40 5.00 2.00
C 5.45 1.85 6.00 2.00 6.00 2.00
C 6.26 1.88 6.65 1.03 7.00 1.00
C 7.50 0.95 8.00 1.00 8.00 1.00
C 7.75 0.75 8.00 0.00 8.00 0.00
L 0.00 0.00
L 0.00 8.00 Z"/>
</g>
<g fill="#FFDBED" fill-opacity="0.05" stroke="None">
<path d="
M 8.00 1.00 
C 8.41 0.81 9.00 1.00 9.00 1.00
C 9.25 0.75 9.00 0.00 9.00 0.00
L 8.00 0.00
C 8.00 0.00 7.75 0.75 8.00 1.00 Z"/>
</g>
<g fill="#FF9DA1" fill-opacity="0.79" stroke="None">
<path d="
M 9.00 1.00 
C 9.35 0.97 9.84 0.34 10.00 0.00
L 9.00 0.00
C 9.00 0.00 9.25 0.75 9.00 1.00 Z"/>
</g>
<g fill="#E81917" fill-opacity="1.00" stroke="None">
<path d="
M 9.00 1.00 
C 9.00 1.00 8.41 0.81 8.00 1.00
C 7.74 1.12 7.35 1.97 7.00 2.00
C 6.50 2.05 6.00 2.00 6.00 2.00
C 5.74 2.12 5.31 2.80 5.00 3.00
C 3.94 3.67 3.65 3.98 3.00 5.00
C 2.80 5.31 2.25 5.75 2.00 6.00
C 1.75 6.25 1.12 6.74 1.00 7.00
C 1.00 7.00 1.00 7.50 1.00 8.00
C 1.00 8.50 1.00 9.00 1.00 9.00
C 0.97 9.35 0.34 9.84 0.00 10.00
L 0.00 16.00
C 0.34 16.17 0.97 16.65 1.00 17.00
C 1.05 17.50 1.00 18.00 1.00 18.00
C 1.00 18.50 1.00 19.00 1.00 19.00
C 1.12 19.26 1.97 19.65 2.00 20.00
C 2.05 20.50 2.00 21.00 2.00 21.00
C 2.12 21.26 2.97 21.65 3.00 22.00
C 3.05 22.50 3.00 23.00 3.00 23.00
C 3.72 23.75 4.81 23.73 5.00 25.00
C 5.07 25.49 5.00 26.00 5.00 26.00
C 5.12 26.26 5.75 26.76 6.00 27.00
C 6.84 27.80 7.36 27.98 8.00 29.00
C 8.30 29.48 8.66 30.64 9.00 31.00
C 9.24 31.26 9.75 31.76 10.00 32.00
C 10.69 32.66 11.38 33.35 12.00 34.00
C 12.24 34.25 12.84 34.67 13.00 35.00
L 14.00 35.00
C 14.95 33.67 16.01 32.22 17.00 31.00
C 18.00 29.76 18.84 28.98 20.00 28.00
C 20.26 27.78 20.88 27.26 21.00 27.00
C 21.19 26.59 21.00 26.00 21.00 26.00
C 21.03 25.65 21.75 25.25 22.00 25.00
C 22.25 24.75 22.88 24.26 23.00 24.00
C 23.19 23.59 23.00 23.00 23.00 23.00
C 23.03 22.65 23.88 22.26 24.00 22.00
C 24.19 21.59 24.00 21.00 24.00 21.00
C 24.03 20.65 24.88 20.26 25.00 20.00
C 25.19 19.59 25.00 19.00 25.00 19.00
C 25.03 18.65 25.88 18.26 26.00 18.00
C 25.75 17.75 26.00 17.00 26.00 17.00
C 26.00 16.50 26.00 16.00 26.00 16.00
C 26.03 15.65 26.67 15.17 27.00 15.00
L 27.00 11.00
C 26.08 10.98 25.96 9.65 26.00 9.00
C 26.03 8.50 26.00 8.00 26.00 8.00
C 26.00 7.50 26.00 7.00 26.00 7.00
C 25.88 6.74 25.26 6.22 25.00 6.00
C 23.80 4.99 22.97 4.15 22.00 3.00
C 21.78 2.74 21.26 2.12 21.00 2.00
C 20.59 1.81 20.00 2.00 20.00 2.00
C 19.65 1.97 19.26 1.12 19.00 1.00
C 18.75 1.25 18.00 1.00 18.00 1.00
C 17.65 0.97 17.17 0.34 17.00 0.00
L 10.00 0.00
C 9.84 0.34 9.35 0.97 9.00 1.00
M 16.00 5.00 
C 16.28 5.25 17.00 5.00 17.00 5.00
C 17.35 5.03 17.74 5.78 18.00 6.00
C 19.20 7.01 20.03 7.85 21.00 9.00
C 21.22 9.26 21.90 9.65 22.00 10.00
C 22.39 11.41 22.00 13.53 22.00 15.00
C 22.00 15.50 22.00 16.00 22.00 16.00
C 21.97 16.35 21.12 16.74 21.00 17.00
C 20.81 17.41 21.00 18.00 21.00 18.00
C 20.87 18.84 19.81 19.88 19.00 20.00
C 18.51 20.07 18.00 20.00 18.00 20.00
C 17.74 20.12 17.35 20.97 17.00 21.00
C 16.50 21.05 16.00 21.00 16.00 21.00
C 15.74 21.12 15.02 22.04 15.00 22.00
C 14.81 21.70 12.39 22.12 12.00 22.00
C 11.65 21.89 11.26 21.12 11.00 21.00
C 10.50 21.00 10.00 21.00 10.00 21.00
C 9.50 21.00 9.00 21.00 9.00 21.00
C 7.77 20.58 6.40 19.18 6.00 18.00
C 5.85 17.55 6.00 17.00 6.00 17.00
C 5.88 16.74 5.03 16.35 5.00 16.00
C 4.95 15.50 5.00 15.00 5.00 15.00
C 3.68 13.64 3.70 12.34 5.00 11.00
C 5.00 10.50 5.00 10.00 5.00 10.00
C 5.03 9.65 5.78 9.26 6.00 9.00
C 7.01 7.80 7.85 6.97 9.00 6.00
C 9.26 5.78 9.65 5.03 10.00 5.00
C 10.50 4.95 11.00 5.00 11.00 5.00
C 12.57 3.62 14.46 3.64 16.00 5.00 Z"/>
</g>
<g fill="#FEA59E" fill-opacity="0.28" stroke="None">
<path d="
M 18.00 1.00 
C 17.75 0.75 18.00 0.00 18.00 0.00
L 17.00 0.00
C 17.17 0.34 17.65 0.97 18.00 1.00 Z"/>
</g>
<g fill="#FFFFFF" fill-opacity="0.00" stroke="None">
<path d="
M 18.00 1.00 
C 18.00 1.00 18.75 1.25 19.00 1.00
C 18.75 0.75 19.00 0.00 19.00 0.00
L 18.00 0.00
C 18.00 0.00 17.75 0.75 18.00 1.00 Z"/>
</g>
<g fill="#000000" fill-opacity="0.00" stroke="None">
<path d="
M 19.00 1.00 
C 19.25 1.25 20.00 1.00 20.00 1.00
C 20.35 1.03 20.75 1.75 21.00 2.00
C 21.25 2.25 21.74 2.88 22.00 3.00
C 22.41 3.19 23.00 3.00 23.00 3.00
C 23.84 3.13 24.88 4.19 25.00 5.00
C 25.07 5.49 25.00 6.00 25.00 6.00
C 25.12 6.26 25.97 6.65 26.00 7.00
C 26.00 7.00 26.00 7.50 26.00 8.00
C 26.25 7.75 27.00 8.00 27.00 8.00
L 27.00 0.00
L 19.00 0.00
C 19.00 0.00 18.75 0.75 19.00 1.00 Z"/>
</g>
<g fill="#FFDBDE" fill-opacity="0.36" stroke="None">
<path d="
M 6.00 2.00 
C 6.00 2.00 6.50 2.05 7.00 2.00
C 7.25 1.75 7.00 1.00 7.00 1.00
C 6.65 1.03 6.26 1.88 6.00 2.00 Z"/>
</g>
<g fill="#E27075" fill-opacity="1.00" stroke="None">
<path d="
M 7.00 2.00 
C 7.35 1.97 7.74 1.12 8.00 1.00
C 8.00 1.00 7.50 0.95 7.00 1.00
C 7.00 1.00 7.25 1.75 7.00 2.00 Z"/>
</g>
<g fill="#F58285" fill-opacity="1.00" stroke="None">
<path d="
M 20.00 2.00 
C 19.75 1.75 20.00 1.00 20.00 1.00
C 20.00 1.00 19.25 1.25 19.00 1.00
C 19.26 1.12 19.65 1.97 20.00 2.00 Z"/>
</g>
<g fill="#FFFFFF" fill-opacity="0.02" stroke="None">
<path d="
M 20.00 2.00 
C 20.00 2.00 20.59 1.81 21.00 2.00
C 20.75 1.75 20.35 1.03 20.00 1.00
C 20.00 1.00 19.75 1.75 20.00 2.00 Z"/>
</g>
<g fill="#FFE7E0" fill-opacity="0.22" stroke="None">
<path d="
M 2.00 5.00 
C 2.25 4.75 3.00 5.00 3.00 5.00
C 3.65 3.98 3.94 3.67 5.00 3.00
C 5.25 2.74 5.00 2.00 5.00 2.00
C 3.82 2.40 2.42 3.77 2.00 5.00 Z"/>
</g>
<g fill="#FE9495" fill-opacity="1.00" stroke="None">
<path d="
M 5.00 3.00 
C 5.31 2.80 5.74 2.12 6.00 2.00
C 6.00 2.00 5.45 1.85 5.00 2.00
C 5.00 2.00 5.25 2.74 5.00 3.00 Z"/>
</g>
<g fill="#FFADAA" fill-opacity="0.72" stroke="None">
<path d="
M 22.00 3.00 
C 21.74 2.88 21.25 2.25 21.00 2.00
C 21.26 2.12 21.78 2.74 22.00 3.00 Z"/>
</g>
<g fill="#FE9598" fill-opacity="1.00" stroke="None">
<path d="
M 25.00 6.00 
C 25.00 6.00 25.07 5.49 25.00 5.00
C 24.45 4.42 23.53 3.51 23.00 3.00
C 23.00 3.00 22.41 3.19 22.00 3.00
C 22.97 4.15 23.80 4.99 25.00 6.00 Z"/>
</g>
<g fill="#FFFFFF" fill-opacity="0.00" stroke="None">
<path d="
M 25.00 5.00 
C 24.88 4.19 23.84 3.13 23.00 3.00
C 23.53 3.51 24.45 4.42 25.00 5.00 Z"/>
</g>
<g fill="#F47879" fill-opacity="1.00" stroke="None">
<path d="
M 11.00 5.00 
C 11.68 4.70 15.32 4.70 16.00 5.00
C 14.46 3.64 12.57 3.62 11.00 5.00 Z"/>
</g>
<g fill="#FE8181" fill-opacity="1.00" stroke="None">
<path d="
M 2.00 6.00 
C 2.25 5.75 2.80 5.31 3.00 5.00
C 3.00 5.00 2.25 4.75 2.00 5.00
C 2.00 5.00 2.19 5.59 2.00 6.00 Z"/>
</g>
<g fill="#FFAEAB" fill-opacity="0.62" stroke="None">
<path d="
M 9.00 6.00 
C 9.18 5.76 10.00 6.00 10.00 6.00
C 10.25 5.75 10.00 5.00 10.00 5.00
C 9.65 5.03 9.26 5.78 9.00 6.00 Z"/>
</g>
<g fill="#FFFFFF" fill-opacity="0.00" stroke="None">
<path d="
M 10.00 6.00 
C 10.35 5.97 10.74 5.12 11.00 5.00
C 11.00 5.00 10.50 4.95 10.00 5.00
C 10.00 5.00 10.25 5.75 10.00 6.00 Z"/>
</g>
<g fill="#000000" fill-opacity="0.00" stroke="None">
<path d="
M 10.00 6.00 
C 10.00 6.00 9.18 5.76 9.00 6.00
C 8.03 7.31 7.17 8.01 6.00 9.00
C 5.74 9.22 5.12 9.74 5.00 10.00
C 5.00 10.00 5.00 10.50 5.00 11.00
C 5.00 12.33 5.00 13.67 5.00 15.00
C 5.00 15.00 4.95 15.50 5.00 16.00
C 5.12 16.26 5.97 16.65 6.00 17.00
C 6.00 17.00 5.85 17.55 6.00 18.00
C 6.73 18.80 8.14 19.42 9.00 20.00
C 9.31 20.21 9.74 20.88 10.00 21.00
C 10.00 21.00 10.50 21.00 11.00 21.00
C 11.50 21.00 12.00 21.00 12.00 21.00
C 13.00 21.00 14.00 21.00 15.00 21.00
C 15.50 21.00 16.00 21.00 16.00 21.00
C 16.00 21.00 16.50 21.05 17.00 21.00
C 17.26 20.88 17.65 20.03 18.00 20.00
C 18.00 20.00 18.51 20.07 19.00 20.00
C 19.47 19.77 19.76 18.38 20.00 18.00
C 20.20 17.69 20.88 17.26 21.00 17.00
C 21.19 16.59 21.00 16.00 21.00 16.00
C 21.03 15.65 21.88 15.26 22.00 15.00
C 22.00 13.53 22.39 11.41 22.00 10.00
C 21.88 9.74 21.26 9.22 21.00 9.00
C 19.77 7.96 18.94 7.27 18.00 6.00
C 17.82 5.76 17.00 6.00 17.00 6.00
C 16.65 5.97 16.26 5.12 16.00 5.00
C 15.32 4.70 11.68 4.70 11.00 5.00
C 10.74 5.12 10.35 5.97 10.00 6.00 Z"/>
</g>
<g fill="#FFD1E8" fill-opacity="0.04" stroke="None">
<path d="
M 17.00 6.00 
C 16.75 5.75 17.00 5.00 17.00 5.00
C 17.00 5.00 16.28 5.25 16.00 5.00
C 16.26 5.12 16.65 5.97 17.00 6.00 Z"/>
</g>
<g fill="#FE9493" fill-opacity="1.00" stroke="None">
<path d="
M 17.00 6.00 
C 17.00 6.00 17.82 5.76 18.00 6.00
C 17.74 5.78 17.35 5.03 17.00 5.00
C 17.00 5.00 16.75 5.75 17.00 6.00 Z"/>
</g>
<g fill="#FFD7D5" fill-opacity="0.50" stroke="None">
<path d="
M 1.00 7.00 
C 1.12 6.74 1.75 6.25 2.00 6.00
C 1.88 6.26 1.03 6.65 1.00 7.00 Z"/>
</g>
<g fill="#FFFFFF" fill-opacity="0.01" stroke="None">
<path d="
M 6.00 9.00 
C 7.17 8.01 8.03 7.31 9.00 6.00
C 7.85 6.97 7.01 7.80 6.00 9.00 Z"/>
</g>
<g fill="#FFE8E1" fill-opacity="0.03" stroke="None">
<path d="
M 21.00 9.00 
C 20.03 7.85 19.20 7.01 18.00 6.00
C 18.94 7.27 19.77 7.96 21.00 9.00 Z"/>
</g>
<g fill="#FFE2DB" fill-opacity="0.31" stroke="None">
<path d="
M 26.00 7.00 
C 25.97 6.65 25.12 6.26 25.00 6.00
C 25.26 6.22 25.88 6.74 26.00 7.00 Z"/>
</g>
<g fill="#FFD2D2" fill-opacity="0.07" stroke="None">
<path d="
M 0.00 9.00 
C 0.50 9.00 1.00 9.00 1.00 9.00
C 1.00 9.00 1.00 8.50 1.00 8.00
C 1.00 8.00 0.50 8.00 0.00 8.00
L 0.00 9.00 Z"/>
</g>
<g fill="#FFEAE5" fill-opacity="0.19" stroke="None">
<path d="
M 26.00 9.00 
C 26.25 9.25 27.00 9.00 27.00 9.00
L 27.00 8.00
C 27.00 8.00 26.25 7.75 26.00 8.00
C 26.00 8.00 26.03 8.50 26.00 9.00 Z"/>
</g>
<g fill="#FE7F7B" fill-opacity="0.86" stroke="None">
<path d="
M 0.00 10.00 
C 0.34 9.84 0.97 9.35 1.00 9.00
C 1.00 9.00 0.50 9.00 0.00 9.00
L 0.00 10.00 Z"/>
</g>
<g fill="#FFB1BA" fill-opacity="0.55" stroke="None">
<path d="
M 5.00 10.00 
C 5.12 9.74 5.74 9.22 6.00 9.00
C 5.78 9.26 5.03 9.65 5.00 10.00 Z"/>
</g>
<g fill="#FB918B" fill-opacity="1.00" stroke="None">
<path d="
M 22.00 10.00 
C 21.90 9.65 21.22 9.26 21.00 9.00
C 21.26 9.22 21.88 9.74 22.00 10.00 Z"/>
</g>
<g fill="#FF9C94" fill-opacity="1.00" stroke="None">
<path d="
M 27.00 11.00 
L 27.00 9.00
C 27.00 9.00 26.25 9.25 26.00 9.00
C 25.96 9.65 26.08 10.98 27.00 11.00 Z"/>
</g>
<g fill="#F6787A" fill-opacity="1.00" stroke="None">
<path d="
M 5.00 15.00 
C 5.00 13.67 5.00 12.33 5.00 11.00
C 3.70 12.34 3.68 13.64 5.00 15.00 Z"/>
</g>
<g fill="#FFFFFF" fill-opacity="0.00" stroke="None">
<path d="
M 21.00 16.00 
C 21.25 15.75 22.00 16.00 22.00 16.00
C 22.00 16.00 22.00 15.50 22.00 15.00
C 21.88 15.26 21.03 15.65 21.00 16.00 Z"/>
</g>
<g fill="#FE6F72" fill-opacity="1.00" stroke="None">
<path d="
M 26.00 16.00 
C 26.25 15.75 27.00 16.00 27.00 16.00
L 27.00 15.00
C 26.67 15.17 26.03 15.65 26.00 16.00 Z"/>
</g>
<g fill="#FE8282" fill-opacity="1.00" stroke="None">
<path d="
M 0.00 17.00 
C 0.50 17.00 1.00 17.00 1.00 17.00
C 0.97 16.65 0.34 16.17 0.00 16.00
L 0.00 17.00 Z"/>
</g>
<g fill="#FFD6D6" fill-opacity="0.39" stroke="None">
<path d="
M 6.00 17.00 
C 5.97 16.65 5.12 16.26 5.00 16.00
C 5.03 16.35 5.88 16.74 6.00 17.00 Z"/>
</g>
<g fill="#FFB6AA" fill-opacity="0.99" stroke="None">
<path d="
M 21.00 17.00 
C 21.12 16.74 21.97 16.35 22.00 16.00
C 22.00 16.00 21.25 15.75 21.00 16.00
C 21.00 16.00 21.19 16.59 21.00 17.00 Z"/>
</g>
<g fill="#FFBBB1" fill-opacity="1.00" stroke="None">
<path d="
M 26.00 17.00 
C 26.25 16.75 27.00 17.00 27.00 17.00
L 27.00 16.00
C 27.00 16.00 26.25 15.75 26.00 16.00
C 26.00 16.00 26.00 16.50 26.00 17.00 Z"/>
</g>
<g fill="#FFD1DC" fill-opacity="0.09" stroke="None">
<path d="
M 0.00 18.00 
C 0.50 18.00 1.00 18.00 1.00 18.00
C 1.00 18.00 1.05 17.50 1.00 17.00
C 1.00 17.00 0.50 17.00 0.00 17.00
L 0.00 18.00 Z"/>
</g>
<g fill="#FFE7DB" fill-opacity="0.08" stroke="None">
<path d="
M 20.00 18.00 
C 20.40 17.80 21.00 18.00 21.00 18.00
C 21.00 18.00 20.81 17.41 21.00 17.00
C 20.88 17.26 20.20 17.69 20.00 18.00 Z"/>
</g>
<g fill="#FFE9DD" fill-opacity="0.65" stroke="None">
<path d="
M 26.00 18.00 
C 26.25 17.75 27.00 18.00 27.00 18.00
L 27.00 17.00
C 27.00 17.00 26.25 16.75 26.00 17.00
C 26.00 17.00 25.75 17.75 26.00 18.00 Z"/>
</g>
<g fill="#FFFFFF" fill-opacity="0.01" stroke="None">
<path d="
M 0.00 19.00 
C 0.50 19.00 1.00 19.00 1.00 19.00
C 1.00 19.00 1.00 18.50 1.00 18.00
C 1.00 18.00 0.50 18.00 0.00 18.00
L 0.00 19.00 Z"/>
</g>
<g fill="#FE8F94" fill-opacity="1.00" stroke="None">
<path d="
M 9.00 21.00 
C 8.75 20.75 9.00 20.00 9.00 20.00
C 8.14 19.42 6.73 18.80 6.00 18.00
C 6.40 19.18 7.77 20.58 9.00 21.00 Z"/>
</g>
<g fill="#FF7C77" fill-opacity="1.00" stroke="None">
<path d="
M 19.00 20.00 
C 19.81 19.88 20.87 18.84 21.00 18.00
C 21.00 18.00 20.40 17.80 20.00 18.00
C 19.76 18.38 19.47 19.77 19.00 20.00 Z"/>
</g>
<g fill="#FB7D77" fill-opacity="1.00" stroke="None">
<path d="
M 25.00 19.00 
C 25.25 18.75 26.00 19.00 26.00 19.00
C 26.05 18.50 26.00 18.00 26.00 18.00
C 25.88 18.26 25.03 18.65 25.00 19.00 Z"/>
</g>
<g fill="#000000" fill-opacity="0.00" stroke="None">
<path d="
M 26.00 19.00 
C 25.97 19.35 25.12 19.74 25.00 20.00
C 24.81 20.41 25.00 21.00 25.00 21.00
C 24.97 21.35 24.12 21.74 24.00 22.00
C 23.81 22.41 24.00 23.00 24.00 23.00
C 23.97 23.35 23.25 23.75 23.00 24.00
C 22.75 24.25 22.12 24.74 22.00 25.00
C 21.81 25.41 22.00 26.00 22.00 26.00
C 21.97 26.35 21.25 26.75 21.00 27.00
C 20.75 27.25 20.22 27.74 20.00 28.00
C 19.05 29.12 17.96 30.03 17.00 31.00
C 16.01 32.22 14.95 33.67 14.00 35.00
L 27.00 35.00
L 27.00 18.00
C 27.00 18.00 26.25 17.75 26.00 18.00
C 26.00 18.00 26.05 18.50 26.00 19.00 Z"/>
</g>
<g fill="#000000" fill-opacity="0.00" stroke="None">
<path d="
M 0.00 35.00 
L 12.00 35.00
C 12.00 34.50 12.00 34.00 12.00 34.00
C 11.39 33.37 10.58 32.61 10.00 32.00
C 9.76 31.75 9.25 31.24 9.00 31.00
C 8.16 30.20 7.64 30.02 7.00 29.00
C 6.70 28.52 6.34 27.36 6.00 27.00
C 5.76 26.74 5.25 26.25 5.00 26.00
C 4.75 25.75 4.04 25.35 4.00 25.00
C 3.97 24.78 3.12 23.13 3.00 23.00
C 2.76 22.74 2.03 22.35 2.00 22.00
C 1.95 21.50 2.00 21.00 2.00 21.00
C 1.88 20.74 1.03 20.35 1.00 20.00
C 0.95 19.50 1.00 19.00 1.00 19.00
C 1.00 19.00 0.50 19.00 0.00 19.00
L 0.00 35.00 Z"/>
</g>
<g fill="#FFC5C9" fill-opacity="1.00" stroke="None">
<path d="
M 1.00 20.00 
C 1.25 20.25 2.00 20.00 2.00 20.00
C 1.97 19.65 1.12 19.26 1.00 19.00
C 1.00 19.00 0.95 19.50 1.00 20.00 Z"/>
</g>
<g fill="#FFE6E2" fill-opacity="0.87" stroke="None">
<path d="
M 25.00 20.00 
C 25.12 19.74 25.97 19.35 26.00 19.00
C 26.00 19.00 25.25 18.75 25.00 19.00
C 25.00 19.00 25.19 19.59 25.00 20.00 Z"/>
</g>
<g fill="#FFECEC" fill-opacity="0.32" stroke="None">
<path d="
M 2.00 21.00 
C 2.00 21.00 2.05 20.50 2.00 20.00
C 2.00 20.00 1.25 20.25 1.00 20.00
C 1.03 20.35 1.88 20.74 2.00 21.00 Z"/>
</g>
<g fill="#FFDCEA" fill-opacity="0.29" stroke="None">
<path d="
M 9.00 21.00 
C 9.00 21.00 9.50 21.00 10.00 21.00
C 9.74 20.88 9.31 20.21 9.00 20.00
C 9.00 20.00 8.75 20.75 9.00 21.00 Z"/>
</g>
<g fill="#FFDEDE" fill-opacity="0.37" stroke="None">
<path d="
M 17.00 21.00 
C 17.35 20.97 17.74 20.12 18.00 20.00
C 17.65 20.03 17.26 20.88 17.00 21.00 Z"/>
</g>
<g fill="#DF7676" fill-opacity="1.00" stroke="None">
<path d="
M 24.00 21.00 
C 24.25 20.75 25.00 21.00 25.00 21.00
C 25.00 21.00 24.81 20.41 25.00 20.00
C 24.88 20.26 24.03 20.65 24.00 21.00 Z"/>
</g>
<g fill="#FFCFCE" fill-opacity="1.00" stroke="None">
<path d="
M 2.00 22.00 
C 2.25 22.25 3.00 22.00 3.00 22.00
C 2.97 21.65 2.12 21.26 2.00 21.00
C 2.00 21.00 1.95 21.50 2.00 22.00 Z"/>
</g>
<g fill="#FFB0AD" fill-opacity="1.00" stroke="None">
<path d="
M 12.00 22.00 
C 11.75 21.73 12.00 21.00 12.00 21.00
C 12.00 21.00 11.50 21.00 11.00 21.00
C 11.26 21.12 11.65 21.89 12.00 22.00 Z"/>
</g>
<g fill="#FFDACE" fill-opacity="0.63" stroke="None">
<path d="
M 12.00 22.00 
C 12.39 22.12 14.81 21.70 15.00 22.00
C 15.25 21.73 15.00 21.00 15.00 21.00
C 14.00 21.00 13.00 21.00 12.00 21.00
C 12.00 21.00 11.75 21.73 12.00 22.00 Z"/>
</g>
<g fill="#FEA0A3" fill-opacity="1.00" stroke="None">
<path d="
M 15.00 22.00 
C 15.02 22.04 15.74 21.12 16.00 21.00
C 16.00 21.00 15.50 21.00 15.00 21.00
C 15.00 21.00 15.25 21.73 15.00 22.00 Z"/>
</g>
<g fill="#FFE7E7" fill-opacity="0.75" stroke="None">
<path d="
M 24.00 22.00 
C 24.12 21.74 24.97 21.35 25.00 21.00
C 25.00 21.00 24.25 20.75 24.00 21.00
C 24.00 21.00 24.19 21.59 24.00 22.00 Z"/>
</g>
<g fill="#FFE6E6" fill-opacity="0.04" stroke="None">
<path d="
M 3.00 23.00 
C 3.00 23.00 3.05 22.50 3.00 22.00
C 3.00 22.00 2.25 22.25 2.00 22.00
C 2.03 22.35 2.76 22.74 3.00 23.00 Z"/>
</g>
<g fill="#FE8384" fill-opacity="1.00" stroke="None">
<path d="
M 23.00 23.00 
C 23.25 22.75 24.00 23.00 24.00 23.00
C 24.00 23.00 23.81 22.41 24.00 22.00
C 23.88 22.26 23.03 22.65 23.00 23.00 Z"/>
</g>
<g fill="#FFC6C4" fill-opacity="0.91" stroke="None">
<path d="
M 4.00 25.00 
C 4.40 25.20 5.00 25.00 5.00 25.00
C 4.81 23.73 3.72 23.75 3.00 23.00
C 3.12 23.13 3.97 24.78 4.00 25.00 Z"/>
</g>
<g fill="#FFE7E3" fill-opacity="0.67" stroke="None">
<path d="
M 23.00 24.00 
C 23.25 23.75 23.97 23.35 24.00 23.00
C 24.00 23.00 23.25 22.75 23.00 23.00
C 23.00 23.00 23.19 23.59 23.00 24.00 Z"/>
</g>
<g fill="#FFDAD2" fill-opacity="1.00" stroke="None">
<path d="
M 22.00 25.00 
C 22.12 24.74 22.75 24.25 23.00 24.00
C 22.88 24.26 22.25 24.75 22.00 25.00 Z"/>
</g>
<g fill="#FFE3E3" fill-opacity="0.11" stroke="None">
<path d="
M 5.00 26.00 
C 5.00 26.00 5.07 25.49 5.00 25.00
C 5.00 25.00 4.40 25.20 4.00 25.00
C 4.04 25.35 4.75 25.75 5.00 26.00 Z"/>
</g>
<g fill="#FE8785" fill-opacity="1.00" stroke="None">
<path d="
M 21.00 26.00 
C 21.25 25.75 22.00 26.00 22.00 26.00
C 22.00 26.00 21.81 25.41 22.00 25.00
C 21.75 25.25 21.03 25.65 21.00 26.00 Z"/>
</g>
<g fill="#FFECE3" fill-opacity="0.56" stroke="None">
<path d="
M 6.00 27.00 
C 5.75 26.76 5.12 26.26 5.00 26.00
C 5.25 26.25 5.76 26.74 6.00 27.00 Z"/>
</g>
<g fill="#FFE8E8" fill-opacity="0.22" stroke="None">
<path d="
M 21.00 27.00 
C 21.25 26.75 21.97 26.35 22.00 26.00
C 22.00 26.00 21.25 25.75 21.00 26.00
C 21.00 26.00 21.19 26.59 21.00 27.00 Z"/>
</g>
<g fill="#FFBCB8" fill-opacity="1.00" stroke="None">
<path d="
M 7.00 29.00 
C 7.40 29.20 8.00 29.00 8.00 29.00
C 7.36 27.98 6.84 27.80 6.00 27.00
C 6.34 27.36 6.70 28.52 7.00 29.00 Z"/>
</g>
<g fill="#FFDFDB" fill-opacity="0.78" stroke="None">
<path d="
M 20.00 28.00 
C 20.22 27.74 20.75 27.25 21.00 27.00
C 20.88 27.26 20.26 27.78 20.00 28.00 Z"/>
</g>
<g fill="#FEA6A4" fill-opacity="1.00" stroke="None">
<path d="
M 17.00 31.00 
C 17.96 30.03 19.05 29.12 20.00 28.00
C 18.84 28.98 18.00 29.76 17.00 31.00 Z"/>
</g>
<g fill="#FFEFE8" fill-opacity="0.19" stroke="None">
<path d="
M 9.00 31.00 
C 8.66 30.64 8.30 29.48 8.00 29.00
C 8.00 29.00 7.40 29.20 7.00 29.00
C 7.64 30.02 8.16 30.20 9.00 31.00 Z"/>
</g>
<g fill="#FFE6D8" fill-opacity="0.60" stroke="None">
<path d="
M 10.00 32.00 
C 9.75 31.76 9.24 31.26 9.00 31.00
C 9.25 31.24 9.76 31.75 10.00 32.00 Z"/>
</g>
<g fill="#FFE1E1" fill-opacity="0.93" stroke="None">
<path d="
M 12.00 34.00 
C 11.38 33.35 10.69 32.66 10.00 32.00
C 10.58 32.61 11.39 33.37 12.00 34.00 Z"/>
</g>
<g fill="#FFDED9" fill-opacity="0.18" stroke="None">
<path d="
M 12.00 35.00 
L 13.00 35.00
C 12.84 34.67 12.24 34.25 12.00 34.00
C 12.00 34.00 12.00 34.50 12.00 35.00 Z"/>
</g>
</svg>